<?xml version="1.0" encoding="UTF-8"?>
<svg xmlns="http://www.w3.org/2000/svg" width="37.82734847906977" height="40.0" viewBox="22.28632850227882 20.0 37.82734847906977 40.0" preserveAspectRatio="none">
  <defs>
    <path id="s-Path_116-d1224" d="M60.113671795744494 35.478280782699564 C60.113671795744494 33.46554636955259 59.35742177190264 31.547577679157243 57.98421867312868 30.077421665191636 C56.95320308329542 28.9735935628414 55.647109226603106 28.19937482476233 54.21281255902727 27.82367169857024 C54.23257818333809 27.6089060679078 54.24382818518211 27.392343580722798 54.24382818518211 27.174218595027913 C54.24390651406725 23.218281269073483 51.02562524499376 20.0 47.06976510705431 20.0 C45.336249546427325 20.0 43.74539025248964 20.618906244635582 42.50437446059664 21.646562516689297 L42.50437446059664 35.00968784093855 L43.58164005102594 35.00968784093855 L43.58164005102594 33.19632843136785 L46.19031183542688 33.19632843136785 L46.19031183542688 35.00968784093855 L48.00367124499758 35.00968784093855 L48.00367124499758 37.61835962533948 L46.19031183542688 37.61835962533948 L46.19031183542688 38.69570337235925 L48.00367124499758 38.69570337235925 L48.00367124499758 41.30437515676019 L46.19031183542688 41.30437515676019 L46.19031183542688 42.38164074718949 L48.00367124499758 42.38164074718949 L48.00367124499758 44.990312531590426 L46.19031183542688 44.990312531590426 L46.19031183542688 46.80367194116111 L43.58164005102594 46.80367194116111 L43.58164005102594 44.990312531590426 L42.50437446059664 44.990312531590426 L42.50437446059664 58.35343785583967 C43.74538995446642 59.38109397888178 45.33624984445055 59.99999999999994 47.06976510705431 59.99999999999994 C51.02562435092409 59.99999999999994 54.243827835936145 56.781718730926464 54.243827835936145 52.825937271118114 C54.243827835936145 52.608124762773464 54.23289033588958 52.39117164164777 54.21335908705373 52.175390422344165 C57.604921489302114 51.28249980509277 60.113515585009054 48.189765512943225 60.113515585009054 44.52171832323071 C60.113515585009054 42.887421399354906 59.61492183739324 41.316640079021425 58.692812501732305 39.99679654836652 C59.58788968743761 38.71476531028745 60.113671795744494 37.156875133514376 60.113671795744494 35.478280782699564 Z "></path>
    <path id="s-Path_115-d1224" d="M39.89562489213421 35.009686946868875 L39.89562489213421 21.646562516689297 C38.65460969628765 20.618906244635582 37.06374980630353 20.0 35.330234543699774 20.0 C31.374375299830007 20.0 28.156171814817963 23.218281269073483 28.156171814817963 27.174062728881825 C28.156171814817963 27.39234397187828 28.167499939492 27.608828358352174 28.187187440972803 27.823515832424153 C26.75289062438536 28.199140839278684 25.446953006368165 28.973437696695314 24.415781326871404 30.07726579904555 C23.0425001460128 31.547500193119035 22.286328204255597 33.46554696559904 22.286328204255597 35.47820359468458 C22.286328204255597 37.156797349452944 22.81218757508327 38.71468782424924 23.70703128753234 39.996719360351534 C22.78484379528095 41.31664127111432 22.286328204255597 42.88742244243619 22.286328204255597 44.521641135215724 C22.286328204255597 48.18960994482036 24.794922001939305 51.28242254257198 28.1864847022109 52.17531323432918 C28.167031577369226 52.39101635292168 28.156015953328488 52.607891373336265 28.156015953328488 52.82586008310313 C28.156015953328488 56.78171932697291 31.374297222401964 59.99992281198496 35.3300786822103 59.99992281198496 C37.06367247393354 59.99992281198496 38.65453191688283 59.38101656734938 39.89546932866796 58.35336029529566 L39.89546932866796 46.803750991821246 L39.89554745367167 46.803750991821246 L39.89554745367167 44.99039158225056 L38.8182037066519 44.99039158225056 L38.8182037066519 46.803750991821246 L36.209531922250974 46.803750991821246 L36.209531922250974 44.99039158225056 L34.39617251268028 44.99039158225056 L34.39617251268028 42.38171979784963 L36.209531922250974 42.38171979784963 L36.209531922250974 41.30445420742032 L34.39617251268028 41.30445420742032 L34.39617251268028 38.69578242301938 L36.209531922250974 38.69578242301938 L36.209531922250974 37.61843867599961 L34.39617251268028 37.61843867599961 L34.39617251268028 35.00976689159868 L36.209531922250974 35.00976689159868 L36.209531922250974 33.196407482027986 L38.8182037066519 33.196407482027986 L38.8182037066519 35.00976689159868 L39.89562489213421 35.00976689159868 Z "></path>
    <path id="s-Path_114-d1224" d="M38.81828166665514 37.618281841278076 L43.581484929937915 37.618281841278076 L43.581484929937915 42.38148510456085 L38.81828166665514 42.38148510456085 Z "></path>
  </defs>
  <g style="mix-blend-mode:normal">
    <use xmlns:xlink="http://www.w3.org/1999/xlink" xlink:href="#s-Path_116-d1224"></use>
    <use xmlns:xlink="http://www.w3.org/1999/xlink" xlink:href="#s-Path_115-d1224"></use>
    <use xmlns:xlink="http://www.w3.org/1999/xlink" xlink:href="#s-Path_114-d1224"></use>
  </g>
</svg>
